<?xml version="1.0" encoding="UTF-8" standalone="no"?>
<!-- Created with Inkscape (http://www.inkscape.org/) -->

<svg
   width="297mm"
   height="210mm"
   viewBox="0 0 297 210"
   version="1.1"
   id="svg515"
   inkscape:version="1.2.2 (732a01da63, 2022-12-09)"
   sodipodi:docname="FONDO.svg"
   xmlns:inkscape="http://www.inkscape.org/namespaces/inkscape"
   xmlns:sodipodi="http://sodipodi.sourceforge.net/DTD/sodipodi-0.dtd"
   xmlns="http://www.w3.org/2000/svg"
   xmlns:svg="http://www.w3.org/2000/svg">
  <sodipodi:namedview
     id="namedview517"
     pagecolor="#ffffff"
     bordercolor="#000000"
     borderopacity="0.25"
     inkscape:showpageshadow="2"
     inkscape:pageopacity="0.0"
     inkscape:pagecheckerboard="0"
     inkscape:deskcolor="#d1d1d1"
     inkscape:document-units="mm"
     showgrid="false"
     inkscape:zoom="0.7483165"
     inkscape:cx="606.69516"
     inkscape:cy="463.03937"
     inkscape:window-width="1920"
     inkscape:window-height="1001"
     inkscape:window-x="-9"
     inkscape:window-y="-9"
     inkscape:window-maximized="1"
     inkscape:current-layer="layer1" />
  <defs
     id="defs512" />
  <g
     inkscape:label="Capa 1"
     inkscape:groupmode="layer"
     id="layer1">
    <path
       id="path867"
       style="fill:#ffffff;stroke:#000000;stroke-width:0.560001"
       d="m -2.6519363,119.50723 a 11.137501,12.374999 0 0 0 -11.1373047,12.37495 11.137501,12.374999 0 0 0 11.1373047,12.37496 11.137501,12.374999 0 0 0 3.8545451,-0.77205 28.285715,27.578571 0 0 0 -13.9309328,23.75411 28.285715,27.578571 0 0 0 2.7497032,11.85147 26.694643,21.0375 0 0 0 -15.4786422,19.08617 26.694643,21.0375 0 0 0 26.6950118,21.03748 26.694643,21.0375 0 0 0 15.8109212,-4.09432 18.5625,17.325001 0 0 0 18.13171,13.64051 18.5625,17.325001 0 0 0 13.076721,-5.04517 29.876787,27.755358 0 0 0 7.07657,0.80253 29.876787,27.755358 0 0 0 21.499463,-8.50336 22.098215,21.567858 0 0 0 18.808155,10.27121 22.098215,21.567858 0 0 0 21.979011,-19.45772 45.787498,36.064289 0 0 0 0.13333,-0.0434 28.285715,27.578571 0 0 0 26.85728,18.97093 28.285715,27.578571 0 0 0 26.93789,-19.19573 40.500526,36.080891 0 0 0 39.71023,29.11192 40.500526,36.080891 0 0 0 33.92248,-16.40726 27.048214,22.098215 0 0 0 21.58835,8.78912 27.048214,22.098215 0 0 0 25.10751,-13.91181 16.617857,13.082143 0 0 0 4.41575,0.47594 16.617857,13.082143 0 0 0 16.61759,-13.08189 16.617857,13.082143 0 0 0 -11.77499,-12.51396 29.876787,26.164286 0 0 0 5.7645,-15.41818 29.876787,26.164286 0 0 0 -26.34671,-25.9793 15.733928,15.910714 0 0 0 0.53589,-4.07417 15.733928,15.910714 0 0 0 -15.73393,-15.91117 15.733928,15.910714 0 0 0 -15.20889,11.87731 18.385714,17.855358 0 0 0 -10.77867,-3.39152 18.385714,17.855358 0 0 0 -18.38596,17.85575 18.385714,17.855358 0 0 0 1.50275,7.03782 21.567858,25.457142 0 0 0 -2.14198,3.41168 40.500526,36.080891 0 0 0 -7.42797,-0.88677 16.264286,16.617857 0 0 0 5.23895,-12.21476 16.264286,16.617857 0 0 0 -16.26464,-16.61759 16.264286,16.617857 0 0 0 -15.34996,11.16004 31.644642,28.816071 0 0 0 -23.01255,-9.03872 31.644642,28.816071 0 0 0 -19.42466,6.08128 13.258929,13.258929 0 0 0 -12.39666,-8.55658 13.258929,13.258929 0 0 0 -11.61686,6.88381 45.787498,36.064289 0 0 0 -20.204446,-3.70158 45.787498,36.064289 0 0 0 -5.325773,0.26665 13.258929,12.021429 0 0 0 0.198954,-2.0345 13.258929,12.021429 0 0 0 -13.259139,-12.02149 13.258929,12.021429 0 0 0 -13.258622,12.02149 13.258929,12.021429 0 0 0 4.338236,8.88835 45.787498,36.064289 0 0 0 -2.218469,1.39681 23.335714,21.567858 0 0 0 -22.627043,-16.29565 23.335714,21.567858 0 0 0 -20.989416,12.1481 28.285715,27.578571 0 0 0 -1.013892,-0.40101 11.667857,10.430357 0 0 0 1.142566,-4.49895 11.667857,10.430357 0 0 0 -11.667505,-10.43037 11.667857,10.430357 0 0 0 -7.0863888,2.15077 11.137501,12.374999 0 0 0 -10.7693685,-9.22217 z m 7.2238485,21.78265 a 11.667857,10.430357 0 0 0 0.2418457,0.45113 28.285715,27.578571 0 0 0 -1.7978231,0.7891 11.137501,12.374999 0 0 0 1.5559774,-1.24023 z" />
  </g>
</svg>
