 <svg version="1.0" xmlns="http://www.w3.org/2000/svg"  width="900.000000pt" height="399.000000pt" viewBox="0 0 900.000000 399.000000"  preserveAspectRatio="xMidYMid meet">  <g transform="translate(0.000000,399.000000) scale(0.100000,-0.100000)" fill="#000000" stroke="none"> <path d="M6087 3583 c-4 -3 -7 -138 -7 -299 0 -183 -4 -295 -10 -299 -5 -3 -27 8 -48 24 -92 75 -269 84 -383 19 -34 -19 -119 -99 -130 -123 -5 -11 -13 -27 -18 -35 -56 -95 -65 -283 -19 -400 33 -86 105 -165 192 -212 34 -18 58 -21 146 -22 97 0 109 2 155 28 28 15 62 39 76 52 29 27 39 23 39 -16 0 -46 13 -50 171 -50 121 0 150 3 163 16 14 14 16 87 16 654 0 567 -2 640 -16 654 -13 13 -43 16 -168 16 -84 0 -156 -3 -159 -7z m-93 -798 c48 -20 86 -81 86 -137 0 -140 -188 -199 -270 -86 -92 126 38 284 184 223z"/> <path d="M8313 3583 c-10 -3 -13 -73 -13 -298 0 -294 -4 -332 -34 -294 -27 35 -103 67 -198 83 -41 7 -141 -14 -198 -41 -62 -30 -129 -103 -167 -183 -35 -73 -36 -78 -36 -200 l-1 -125 39 -78 c41 -83 101 -147 177 -188 37 -19 59 -22 148 -23 97 0 109 2 155 28 28 15 62 39 76 52 29 27 39 23 39 -16 0 -14 5 -31 12 -38 15 -15 291 -17 319 -2 18 10 19 28 19 660 0 632 -1 650 -19 660 -20 10 -294 13 -318 3z m-100 -798 c85 -36 113 -145 57 -223 -83 -115 -270 -54 -270 88 0 109 109 179 213 135z"/> <path d="M5087 3536 c-57 -13 -102 -53 -128 -114 -23 -53 -24 -81 -4 -128 37 -88 88 -124 180 -124 89 0 133 29 179 117 34 67 11 150 -59 211 -20 18 -39 32 -43 32 -4 0 -23 4 -42 8 -20 5 -55 4 -83 -2z"/> <path d="M755 3074 c-11 -2 -45 -9 -75 -15 -75 -14 -126 -36 -182 -79 -93 -73 -140 -150 -159 -262 -23 -139 16 -266 111 -358 84 -82 165 -117 287 -125 207 -15 353 47 445 187 83 127 88 288 13 436 -31 61 -116 137 -190 170 -67 30 -205 56 -250 46z m110 -312 c78 -67 73 -178 -11 -233 -46 -30 -94 -25 -140 15 -38 33 -39 35 -39 104 0 65 3 73 29 101 26 27 36 31 85 31 38 -1 62 -6 76 -18z"/> <path d="M1735 3076 c-5 -2 -44 -10 -85 -17 -99 -17 -153 -42 -206 -94 -33 -34 -44 -53 -50 -90 -10 -67 1 -138 28 -179 36 -56 131 -108 223 -125 67 -12 105 -33 105 -58 0 -29 -33 -39 -120 -36 -48 1 -78 8 -113 27 -26 14 -54 26 -62 26 -7 0 -26 -26 -40 -57 -15 -32 -36 -76 -46 -97 -26 -54 -24 -63 14 -83 90 -48 136 -57 297 -57 127 0 165 3 210 19 30 10 62 25 71 32 8 7 20 13 25 13 14 0 65 58 87 97 12 22 17 54 17 116 0 77 -3 87 -29 123 -42 58 -100 93 -191 114 -92 21 -133 36 -142 54 -8 15 -7 22 8 34 25 18 155 10 189 -12 41 -27 61 -20 88 32 14 27 35 65 46 85 27 48 27 77 1 77 -10 0 -34 6 -52 14 -49 21 -247 51 -273 42z"/> <path d="M2650 3075 c-8 -2 -49 -9 -90 -15 -41 -7 -85 -19 -97 -26 -12 -8 -27 -14 -33 -14 -21 0 -117 -80 -148 -123 -55 -77 -72 -136 -72 -247 0 -99 4 -116 48 -209 21 -43 99 -123 143 -145 154 -78 364 -87 502 -21 59 27 69 45 43 74 -25 29 -106 152 -106 161 0 5 -9 14 -21 20 -16 9 -24 8 -37 -3 -24 -21 -94 -30 -136 -19 -96 27 -137 142 -81 225 42 61 117 82 188 52 20 -8 43 -15 50 -15 15 0 97 101 97 119 0 5 3 11 8 13 13 6 52 67 52 81 0 18 -15 29 -65 49 -68 27 -208 51 -245 43z"/> <path d="M4630 3062 c-66 -20 -128 -55 -136 -77 -13 -32 -34 -16 -34 25 l0 40 -163 0 c-113 0 -167 -4 -175 -12 -9 -9 -12 -108 -12 -383 0 -350 1 -373 19 -389 16 -14 39 -16 172 -14 l154 3 5 215 c5 225 8 238 55 286 42 44 159 48 206 8 8 -8 19 -14 23 -14 10 0 45 42 46 54 0 6 21 52 47 104 56 114 54 122 -37 150 -65 21 -114 22 -170 4z"/> <path d="M6895 3074 c-161 -35 -241 -94 -307 -224 -32 -64 -32 -67 -32 -200 0 -118 3 -141 23 -180 44 -90 69 -123 123 -163 86 -64 112 -72 227 -72 104 1 107 2 161 36 30 20 61 43 69 52 18 22 31 13 31 -22 0 -47 12 -51 171 -51 112 0 149 3 158 14 8 9 10 122 9 397 l-3 384 -165 0 -165 0 -3 -25 c-6 -51 -11 -55 -40 -28 -15 13 -38 31 -52 39 -47 28 -163 52 -205 43z m202 -286 c105 -48 124 -189 34 -256 -99 -73 -241 -5 -241 117 0 107 112 181 207 139z"/> <path d="M3057 3044 c-4 -4 -7 -110 -7 -235 0 -224 8 -296 41 -349 5 -8 12 -22 16 -30 16 -37 67 -91 116 -122 73 -47 138 -67 242 -74 199 -13 331 29 429 137 31 34 56 69 56 76 0 8 8 26 18 40 15 24 17 57 17 293 l0 265 -165 0 -165 0 -5 -225 c-5 -245 -7 -252 -67 -291 -43 -29 -96 -25 -136 11 -19 17 -38 42 -42 58 -4 15 -10 122 -14 237 l-6 210 -161 3 c-88 1 -163 -1 -167 -4z"/> <path d="M4967 3043 c-4 -3 -7 -178 -7 -388 0 -314 2 -385 14 -394 9 -8 63 -11 167 -9 l154 3 3 398 2 397 -163 0 c-90 0 -167 -3 -170 -7z"/> <path d="M4127 2143 c-4 -3 -7 -138 -7 -300 0 -207 -3 -293 -11 -293 -6 0 -28 13 -48 28 -76 58 -209 78 -312 45 -136 -43 -228 -155 -263 -320 -17 -78 -17 -87 -1 -169 30 -150 98 -247 213 -304 54 -27 71 -30 150 -30 100 0 134 11 216 70 26 19 51 34 55 33 3 -1 8 -19 11 -40 l5 -38 160 0 160 0 5 653 c3 358 4 657 2 662 -4 11 -324 14 -335 3z m-79 -803 c42 -30 72 -83 72 -125 0 -39 -29 -93 -63 -119 -26 -20 -45 -26 -86 -26 -96 0 -146 50 -146 145 0 48 5 67 23 90 55 70 134 83 200 35z"/> <path d="M2130 2099 c-46 -19 -90 -60 -110 -104 -25 -55 -25 -91 -1 -146 70 -158 282 -158 352 0 24 55 24 87 -1 144 -40 91 -153 141 -240 106z"/> <path d="M910 1623 c-74 -26 -97 -38 -129 -67 -25 -23 -41 -13 -41 25 l0 29 -165 0 c-125 0 -165 -3 -165 -12 -4 -240 2 -764 8 -770 5 -5 78 -7 163 -6 l154 3 5 230 c6 268 12 290 88 326 42 21 46 21 78 6 63 -31 68 -54 74 -322 l5 -240 150 0 150 0 6 225 c7 274 15 303 94 335 46 20 85 8 115 -35 19 -26 20 -45 20 -268 0 -192 3 -242 14 -251 9 -8 64 -11 172 -9 l159 3 2 260 c2 333 -8 384 -96 472 -49 48 -141 83 -222 83 -57 0 -161 -28 -181 -48 -7 -7 -17 -12 -23 -12 -7 0 -25 -13 -41 -30 -16 -16 -32 -30 -36 -30 -4 0 -24 18 -45 41 -68 72 -205 100 -313 62z"/> <path d="M2805 1621 c-80 -22 -138 -54 -183 -99 -43 -43 -82 -96 -82 -112 0 -6 -7 -25 -16 -41 -12 -23 -15 -61 -15 -154 0 -118 1 -125 32 -190 51 -103 128 -165 263 -209 70 -23 317 -22 395 0 64 19 118 44 132 61 10 11 2 31 -36 92 -5 9 -25 42 -43 73 -30 51 -36 57 -53 47 -65 -35 -198 -56 -253 -40 -57 15 -107 52 -104 76 3 19 11 20 258 22 140 1 261 2 268 3 19 0 16 169 -4 222 -36 98 -96 173 -169 210 -110 57 -269 73 -390 39z m223 -244 c12 -11 22 -31 22 -44 0 -23 -2 -23 -105 -23 -95 0 -105 2 -105 18 0 21 46 68 75 75 34 9 89 -4 113 -26z"/> <path d="M4915 1624 c-126 -36 -233 -116 -282 -211 -32 -61 -56 -172 -50 -230 11 -107 44 -178 117 -253 93 -96 184 -130 345 -130 112 0 167 12 252 55 47 23 129 107 154 158 83 161 52 384 -69 500 -111 105 -317 155 -467 111z m213 -301 c43 -43 54 -117 26 -175 -30 -63 -110 -86 -173 -50 -36 20 -75 101 -66 135 16 57 48 101 82 110 34 10 112 -2 131 -20z"/> <path d="M2027 1603 c-10 -9 -8 -756 1 -771 7 -9 47 -12 168 -10 l159 3 3 393 2 392 -163 0 c-90 0 -167 -3 -170 -7z"/> </g> </svg> 