<?xml version="1.0" encoding="UTF-8" standalone="no"?>
<!-- Created with Inkscape (http://www.inkscape.org/) -->

<svg
   width="297mm"
   height="210mm"
   viewBox="0 0 297 210"
   version="1.1"
   id="svg5"
   inkscape:version="1.2.2 (732a01da63, 2022-12-09)"
   sodipodi:docname="nubestienda.svg"
   xmlns:inkscape="http://www.inkscape.org/namespaces/inkscape"
   xmlns:sodipodi="http://sodipodi.sourceforge.net/DTD/sodipodi-0.dtd"
   xmlns="http://www.w3.org/2000/svg"
   xmlns:svg="http://www.w3.org/2000/svg">
  <sodipodi:namedview
     id="namedview7"
     pagecolor="#ffffff"
     bordercolor="#000000"
     borderopacity="0.25"
     inkscape:showpageshadow="2"
     inkscape:pageopacity="0.0"
     inkscape:pagecheckerboard="0"
     inkscape:deskcolor="#d1d1d1"
     inkscape:document-units="mm"
     showgrid="false"
     inkscape:zoom="0.7483165"
     inkscape:cx="412.92688"
     inkscape:cy="348.11474"
     inkscape:window-width="1920"
     inkscape:window-height="1001"
     inkscape:window-x="-9"
     inkscape:window-y="-9"
     inkscape:window-maximized="1"
     inkscape:current-layer="layer1" />
  <defs
     id="defs2" />
  <g
     inkscape:label="Capa 1"
     inkscape:groupmode="layer"
     id="layer1">
    <path
       id="path238"
       style="fill:#ffffff;stroke:#000000;stroke-width:0.560001"
       d="m 0.88400457,118.80022 a 16.0875,17.678572 0 0 0 -16.08739057,17.67851 16.0875,17.678572 0 0 0 10.3171996,16.49771 31.291069,28.992857 0 0 0 -2.89233,12.14138 31.291069,28.992857 0 0 0 3.114022,12.60698 27.048214,24.926785 0 0 0 -11.5998096,20.45198 27.048214,24.926785 0 0 0 27.04848,24.92664 27.048214,24.926785 0 0 0 17.347261,-5.82135 18.405828,16.637972 0 0 0 17.83302,12.55944 18.405828,16.637972 0 0 0 18.405589,-16.63774 18.405828,16.637972 0 0 0 -4.58008,-10.98227 20.507141,21.391071 0 0 0 5.26738,-14.29836 20.507141,21.391071 0 0 0 -10.57558,-18.71462 31.291069,28.992857 0 0 0 0.32194,-4.0907 31.291069,28.992857 0 0 0 -31.291108,-28.99307 31.291069,28.992857 0 0 0 -6.551538,0.65474 16.0875,17.678572 0 0 0 0.01034,-0.30076 16.0875,17.678572 0 0 0 -16.08739043,-17.67851 z" />
    <path
       id="path357"
       style="fill:#ffffff;stroke:#000000;stroke-width:0.560001"
       d="m 277.02325,78.493056 a 16.0875,18.385714 0 0 0 -16.08739,18.385441 16.0875,18.385714 0 0 0 14.94018,18.336863 14.496428,12.198215 0 0 0 -0.0904,1.28623 14.496428,12.198215 0 0 0 14.49628,12.19822 14.496428,12.198215 0 0 0 14.49679,-12.19822 14.496428,12.198215 0 0 0 -3.73518,-8.17263 8.8392859,9.0160723 0 0 0 6.91741,-8.798428 8.8392859,9.0160723 0 0 0 -0.96842,-4.098975 10.284937,10.638509 0 0 0 1.35341,-5.270996 10.284937,10.638509 0 0 0 -10.28516,-10.63811 10.284937,10.638509 0 0 0 -8.89455,5.298384 16.0875,18.385714 0 0 0 -12.14293,-6.327779 z" />
    <path
       id="path363"
       style="fill:#ffffff;stroke:#000000;stroke-width:0.560001"
       d="m 263.0571,159.1069 a 9.1928568,8.8392859 0 0 0 -8.65012,5.86579 9.3696423,9.3696423 0 0 0 -3.19463,-0.56173 9.3696423,9.3696423 0 0 0 -9.36946,9.36946 9.3696423,9.3696423 0 0 0 9.36946,9.36945 9.3696423,9.3696423 0 0 0 1.4242,-0.10955 13.612499,12.374999 0 0 0 13.42605,10.36319 13.612499,12.374999 0 0 0 13.61261,-12.37496 13.612499,12.374999 0 0 0 -7.6538,-11.12593 9.1928568,8.8392859 0 0 0 0.22841,-1.95595 9.1928568,8.8392859 0 0 0 -9.19272,-8.83977 z" />
    <path
       id="path377"
       style="fill:#ffffff;stroke:#000000;stroke-width:0.560001"
       d="m 194.99474,9.1926627 a 13.258929,12.905357 0 0 0 -13.25914,12.9056723 13.258929,12.905357 0 0 0 0.82424,4.457093 13.789286,13.435714 0 0 0 -3.29902,-0.391191 13.789286,13.435714 0 0 0 -13.78934,13.435873 13.789286,13.435714 0 0 0 13.78934,13.435355 13.789286,13.435714 0 0 0 5.31699,-1.047481 17.148214,18.385714 0 0 0 16.07395,12.008569 17.148214,18.385714 0 0 0 15.27659,-10.05675 14.849999,13.612499 0 0 0 3.99304,0.510046 14.849999,13.612499 0 0 0 14.85025,-13.612606 14.849999,13.612499 0 0 0 -14.85025,-13.612089 14.849999,13.612499 0 0 0 -9.57668,3.220476 17.148214,18.385714 0 0 0 -3.76359,-2.086178 13.258929,12.905357 0 0 0 1.67225,-6.261117 13.258929,12.905357 0 0 0 -13.25863,-12.9056723 z" />
  </g>
</svg>
